<svg xmlns="http://www.w3.org/2000/svg" width="1000" height="154" viewBox="0 0 1000 154" role="img"><title>Inside a neural network — experimental</title><rect width="1000" height="154" rx="16" fill="#121d29"/><rect x="1" y="1" width="998" height="152" rx="15" fill="none" stroke="#293b49"/><text x="30" y="49" fill="#b8afff" font-family="monospace" font-size="17">02 /</text><text x="30" y="89" fill="#eef4f8" font-family="sans-serif" font-weight="600" font-size="28">Inside a neural network</text><text x="30" y="123" fill="#9badbd" font-family="monospace" font-size="16">MLP / C++</text><rect x="773" y="26" width="195" height="30" rx="15" fill="#243443"/><text x="870" y="46" text-anchor="middle" font-family="monospace" font-size="13" letter-spacing="1" fill="#b8afff">EXPERIMENTAL</text><path d="M780 105L809 120" stroke="#b8afff" stroke-opacity=".45"/><circle cx="780" cy="105" r="4" fill="#b8afff"/><path d="M809 120L838 105" stroke="#b8afff" stroke-opacity=".45"/><circle cx="809" cy="120" r="4" fill="#b8afff"/><path d="M838 105L867 120" stroke="#b8afff" stroke-opacity=".45"/><circle cx="838" cy="105" r="4" fill="#b8afff"/><path d="M867 120L896 105" stroke="#b8afff" stroke-opacity=".45"/><circle cx="867" cy="120" r="4" fill="#b8afff"/><path d="M896 105L925 120" stroke="#b8afff" stroke-opacity=".45"/><circle cx="896" cy="105" r="4" fill="#b8afff"/><path d="M925 120L954 105" stroke="#b8afff" stroke-opacity=".45"/><circle cx="925" cy="120" r="4" fill="#b8afff"/><circle cx="954" cy="105" r="4" fill="#b8afff"/></svg>
